<svg xmlns="http://www.w3.org/2000/svg" width="100" height="100" class="uil-default" preserveAspectRatio="xMidYMid" viewBox="0 0 100 100"><rect width="100" height="100" x="0" y="0" fill="none" class="bk"/><rect width="10" height="24" x="45" y="38" fill="#fff" rx="4" ry="4" transform="rotate(0 50 50) translate(0 -30)"><animate attributeName="opacity" begin="-0.8s" dur="0.8s" from="1" repeatCount="indefinite" to="0"/></rect><rect width="10" height="24" x="45" y="38" fill="#fff" rx="4" ry="4" transform="rotate(45 50 50) translate(0 -30)"><animate attributeName="opacity" begin="-0.7000000000000001s" dur="0.8s" from="1" repeatCount="indefinite" to="0"/></rect><rect width="10" height="24" x="45" y="38" fill="#fff" rx="4" ry="4" transform="rotate(90 50 50) translate(0 -30)"><animate attributeName="opacity" begin="-0.6000000000000001s" dur="0.8s" from="1" repeatCount="indefinite" to="0"/></rect><rect width="10" height="24" x="45" y="38" fill="#fff" rx="4" ry="4" transform="rotate(135 50 50) translate(0 -30)"><animate attributeName="opacity" begin="-0.5s" dur="0.8s" from="1" repeatCount="indefinite" to="0"/></rect><rect width="10" height="24" x="45" y="38" fill="#fff" rx="4" ry="4" transform="rotate(180 50 50) translate(0 -30)"><animate attributeName="opacity" begin="-0.4s" dur="0.8s" from="1" repeatCount="indefinite" to="0"/></rect><rect width="10" height="24" x="45" y="38" fill="#fff" rx="4" ry="4" transform="rotate(225 50 50) translate(0 -30)"><animate attributeName="opacity" begin="-0.30000000000000004s" dur="0.8s" from="1" repeatCount="indefinite" to="0"/></rect><rect width="10" height="24" x="45" y="38" fill="#fff" rx="4" ry="4" transform="rotate(270 50 50) translate(0 -30)"><animate attributeName="opacity" begin="-0.2s" dur="0.8s" from="1" repeatCount="indefinite" to="0"/></rect><rect width="10" height="24" x="45" y="38" fill="#fff" rx="4" ry="4" transform="rotate(315 50 50) translate(0 -30)"><animate attributeName="opacity" begin="-0.1s" dur="0.8s" from="1" repeatCount="indefinite" to="0"/></rect></svg>